<svg xmlns="http://www.w3.org/2000/svg" viewBox="0 0 512 512" role="img" aria-label="Canis Metabolica">
  <defs>
    <linearGradient id="g" x1="72" y1="60" x2="440" y2="452" gradientUnits="userSpaceOnUse">
      <stop stop-color="#00f2fe"></stop>
      <stop offset=".52" stop-color="#00ff87"></stop>
      <stop offset="1" stop-color="#f35588"></stop>
    </linearGradient>
    <filter id="glow" x="-40%" y="-40%" width="180%" height="180%">
      <feGaussianBlur stdDeviation="12" result="blur"></feGaussianBlur>
      <feMerge>
        <feMergeNode in="blur"></feMergeNode>
        <feMergeNode in="SourceGraphic"></feMergeNode>
      </feMerge>
    </filter>
  </defs>
  <rect width="512" height="512" rx="96" fill="#0a0c10"></rect>
  <path d="M151 309c-12-43 11-91 53-112 45-22 96-10 124 28 22 29 24 68 6 100-16 29-47 48-83 48-46 0-85-27-100-64Z" fill="none" stroke="url(#g)" stroke-width="24" filter="url(#glow)"></path>
  <circle cx="209" cy="278" r="15" fill="#00f2fe"></circle>
  <circle cx="300" cy="278" r="15" fill="#00f2fe"></circle>
  <path d="M225 329c21 18 45 18 65 0" fill="none" stroke="#e2e8f0" stroke-width="14" stroke-linecap="round"></path>
  <path d="M181 207 121 111l22 132M330 207l61-96-22 132" fill="none" stroke="#f35588" stroke-width="18" stroke-linecap="round" stroke-linejoin="round"></path>
  <path d="M93 407c63-61 131-92 203-92 47 0 88 13 123 38" fill="none" stroke="#00ff87" stroke-width="13" stroke-linecap="round" opacity=".85"></path>
  <circle cx="94" cy="407" r="13" fill="#00ff87"></circle>
  <circle cx="296" cy="315" r="13" fill="#ff8c00"></circle>
  <circle cx="419" cy="353" r="13" fill="#9d4edd"></circle>
</svg>